HIERARCHY
ROOT Hips
{
 OFFSET 0.000000 0.000000 0.000000
 CHANNELS 6 Xposition Yposition Zposition Yrotation Xrotation Zrotation
 JOINT Chest
 {
  OFFSET 0.000000 12.953391 -0.028419
  CHANNELS 3 Yrotation Xrotation Zrotation
  JOINT Chest2
  {
   OFFSET 0.000000 10.280254 0.051622
   CHANNELS 3 Yrotation Xrotation Zrotation
   JOINT Chest3
   {
    OFFSET 0.000000 9.287180 0.000000
    CHANNELS 3 Yrotation Xrotation Zrotation
    JOINT Chest4
    {
     OFFSET 0.000000 9.287180 0.000000
     CHANNELS 3 Yrotation Xrotation Zrotation
     JOINT Neck
     {
      OFFSET 0.000000 13.296264 0.000000
      CHANNELS 3 Yrotation Xrotation Zrotation
      JOINT Head
      {
       OFFSET 0.000000 8.959264 0.099003
       CHANNELS 3 Yrotation Xrotation Zrotation
       End Site
       {
        OFFSET 0.000000 17.121337 0.039303
       }
      }
     }
     JOINT RightCollar
     {
      OFFSET -3.193511 7.451388 0.000000
      CHANNELS 3 Yrotation Xrotation Zrotation
      JOINT RightShoulder
      {
       OFFSET -15.792092 0.000000 0.000000
       CHANNELS 3 Yrotation Xrotation Zrotation
       JOINT RightElbow
       {
        OFFSET -31.151839 0.000000 0.000000
        CHANNELS 3 Yrotation Xrotation Zrotation
        JOINT RightWrist
        {
         OFFSET -25.536298 0.000000 0.002321
         CHANNELS 3 Yrotation Xrotation Zrotation
         End Site
         {
          OFFSET -19.133213 0.000000 0.000000
         }
        }
       }
      }
     }
     JOINT LeftCollar
     {
      OFFSET 3.193511 7.451388 0.000000
      CHANNELS 3 Yrotation Xrotation Zrotation
      JOINT LeftShoulder
      {
       OFFSET 15.792092 0.000000 0.000000
       CHANNELS 3 Yrotation Xrotation Zrotation
       JOINT LeftElbow
       {
        OFFSET 31.151839 0.000000 0.000000
        CHANNELS 3 Yrotation Xrotation Zrotation
        JOINT LeftWrist
        {
         OFFSET 25.536298 0.000000 0.002321
         CHANNELS 3 Yrotation Xrotation Zrotation
         End Site
         {
          OFFSET 19.133213 0.000000 0.000000
         }
        }
       }
      }
     }
    }
   }
  }
 }
 JOINT RightHip
 {
  OFFSET -10.745749 0.139252 0.014209
  CHANNELS 3 Yrotation Xrotation Zrotation
  JOINT RightKnee
  {
   OFFSET 0.000000 -43.743899 -0.006071
   CHANNELS 3 Yrotation Xrotation Zrotation
   JOINT RightAnkle
   {
    OFFSET 0.000000 -43.214199 0.089931
    CHANNELS 3 Yrotation Xrotation Zrotation
    JOINT RightToe
    {
     OFFSET 0.000000 -9.699830 19.151588
     CHANNELS 3 Yrotation Xrotation Zrotation
     End Site
     {
      OFFSET 0.000000 -1.292898 4.893873
     }
    }
   }
  }
 }
 JOINT LeftHip
 {
  OFFSET 10.745749 0.139252 0.014209
  CHANNELS 3 Yrotation Xrotation Zrotation
  JOINT LeftKnee
  {
   OFFSET 0.000000 -43.743899 -0.006071
   CHANNELS 3 Yrotation Xrotation Zrotation
   JOINT LeftAnkle
   {
    OFFSET 0.000000 -43.214199 0.089931
    CHANNELS 3 Yrotation Xrotation Zrotation
    JOINT LeftToe
    {
     OFFSET 0.000000 -9.699830 19.151588
     CHANNELS 3 Yrotation Xrotation Zrotation
     End Site
     {
      OFFSET 0.000000 -1.292898 4.893873
     }
    }
   }
  }
 }
}
MOTION
Frames: 5
Frame Time: 0.016667
-80.173352 98.421758 32.833536 105.521932 -16.234847 3.626846 -3.244635 14.549204 2.538061 -1.510224 6.448601 1.221127 -1.510224 6.448601 1.221127 -1.144408 4.833496 0.930878 -14.626324 25.728087 5.482122 -27.327357 13.940637 12.853557 8.968709 1.491031 11.168855 14.870417 -14.548495 57.015709 0.152785 -15.937570 -10.631083 7.411851 22.371819 -41.687713 -4.295136 1.035324 -9.871729 -19.057758 -3.120724 -72.468337 -14.095759 -5.140598 1.335335 0.583180 16.333568 19.812537 -5.304225 19.874861 0.026456 -1.063061 1.781444 0.467460 -6.061142 -7.312033 -1.531587 0.000000 -0.000000 -0.000000 19.416966 3.749774 10.913177 -1.054170 12.556162 -0.997115 -1.116846 -1.085978 -4.132088 0.000000 0.000000 0.000000
-80.354416 98.469883 32.733379 105.550498 -16.040223 3.762772 -3.231570 14.469428 2.558936 -1.504801 6.413075 1.229461 -1.504797 6.413077 1.229468 -1.140368 4.806844 0.936996 -14.640718 25.723849 5.441605 -27.345273 13.925445 12.785710 8.937893 1.575680 11.118092 14.931927 -14.549974 56.913819 0.153929 -15.964896 -10.703384 7.402037 22.376779 -41.647359 -4.356036 1.142733 -9.877633 -19.051024 -3.250779 -72.586174 -14.234720 -5.019134 1.411472 0.681033 16.428850 19.872821 -5.464732 19.625948 -0.238571 -1.040931 1.717435 0.518579 -6.012483 -7.177293 -1.527245 -0.000000 -0.000000 0.000000 19.189829 3.433063 10.713623 0.396043 13.221704 -0.965490 -0.504574 -1.253350 -4.752931 0.000000 0.000000 -0.000000
-80.535481 98.518009 32.633223 105.579516 -15.845665 3.898666 -3.218296 14.389661 2.579735 -1.499284 6.377550 1.237747 -1.499283 6.377552 1.237752 -1.136266 4.780191 0.943066 -14.655153 25.719676 5.401078 -27.363280 13.910377 12.717841 8.906782 1.660325 11.067450 14.993294 -14.551179 56.811864 0.154961 -15.992271 -10.775637 7.392317 22.381772 -41.606956 -4.417189 1.250010 -9.883395 -19.044238 -3.380666 -72.704212 -14.373516 -4.897510 1.487295 0.778972 16.524152 19.933118 -5.624066 19.376251 -0.502242 -1.019001 1.653456 0.569793 -5.963750 -7.042580 -1.522870 0.000000 0.000000 0.000000 18.964529 3.114872 10.515824 1.851246 13.886637 -0.912831 0.104290 -1.402774 -5.383464 -0.000000 -0.000000 0.000000
-80.714703 98.566348 32.528152 105.632470 -15.660668 4.029698 -3.209506 14.315317 2.596379 -1.495626 6.344439 1.244375 -1.495626 6.344439 1.244375 -1.133541 4.755345 0.947914 -14.671178 25.718003 5.356187 -27.382946 13.899098 12.642072 8.881576 1.749068 11.017669 15.044833 -14.547383 56.713628 0.164465 -16.016784 -10.852085 7.401548 22.371135 -41.567107 -4.476350 1.355314 -9.886517 -19.046982 -3.499892 -72.807326 -14.514622 -4.778831 1.571496 0.871219 16.627619 19.985580 -5.767456 19.125127 -0.755348 -0.993286 1.597640 0.613659 -5.955083 -6.907270 -1.519741 0.000000 0.000000 0.000000 18.811785 2.800725 10.337446 3.106102 14.544417 -0.841484 0.590019 -1.512638 -5.688839 0.000000 0.000000 0.000000
-80.892069 98.615999 32.417391 105.713848 -15.488166 4.155225 -3.207419 14.249018 2.606603 -1.494750 6.314912 1.248434 -1.494750 6.314912 1.248433 -1.132877 4.733191 0.950881 -14.690359 25.721855 5.305976 -27.406462 13.897162 12.556384 8.867464 1.848616 10.969815 15.092549 -14.539223 56.614301 0.204394 -16.089753 -10.943316 7.485558 22.263914 -41.415673 -4.533269 1.459226 -9.887448 -19.065193 -3.604184 -72.886571 -14.659248 -4.662817 1.668010 0.954748 16.748695 20.022746 -5.877173 18.866518 -0.990390 -0.957783 1.556410 0.645417 -6.014850 -6.767739 -1.523219 -0.000000 -0.000000 0.000000 18.779794 2.486452 10.184350 4.092950 15.202113 -0.765781 0.898983 -1.578735 -5.421656 0.000000 -0.000000 0.000000
